# xmcd
#
# Track frame offsets:
#	150
#	26830
#	57180
#	82947
#	103792
#	130257
#	146737
#	171590
#	197875
#	223135
#
# Disc length: 3258 seconds
#
# Revision: 2
# Processed by: cddbd v1.5.2PL0 Copyright (c) Steve Scherf et al.
# Submitted via: audiograbber 1.83.01
#
DISCID=990cb80a
DTITLE=Tuan Vu - The Vu - Go Cua
DYEAR=1998
DGENRE=Vietnamese
TTITLE0=Go Cua
TTITLE1=Pho Dem
TTITLE2=Ngay Mai Em San Song
TTITLE3=Gio Danh Do Dua
TTITLE4=Mot Loai Chim Bien
TTITLE5=Chuyen Tinh Be Nho
TTITLE6=Cuoi Troi Mong Doi
TTITLE7=Trang Tan Tren He Pho
TTITLE8=Tram Nam Ben Cu
TTITLE9=Chieu Thuong Do Thi
EXTD=
EXTT0=
EXTT1=
EXTT2=
EXTT3=
EXTT4=
EXTT5=
EXTT6=
EXTT7=
EXTT8=
EXTT9=
PLAYORDER=
